<mxfile host="app.diagrams.net" agent="Mozilla/5.0 (Windows NT 10.0; Win64; x64) AppleWebKit/537.36 (KHTML, like Gecko) Chrome/135.0.0.0 Safari/537.36" version="27.0.1">
  <diagram id="Ht1M8jgEwFfnCIfOTk4-" name="Page-1">
    <mxGraphModel dx="786" dy="451" grid="1" gridSize="10" guides="1" tooltips="1" connect="1" arrows="1" fold="1" page="1" pageScale="1" pageWidth="1169" pageHeight="827" math="0" shadow="0">
      <root>
        <mxCell id="0" />
        <mxCell id="1" parent="0" />
        <mxCell id="UEzPUAAOIrF-is8g5C7q-74" value="AWS Cloud" style="points=[[0,0],[0.25,0],[0.5,0],[0.75,0],[1,0],[1,0.25],[1,0.5],[1,0.75],[1,1],[0.75,1],[0.5,1],[0.25,1],[0,1],[0,0.75],[0,0.5],[0,0.25]];outlineConnect=0;gradientColor=none;html=1;whiteSpace=wrap;fontSize=12;fontStyle=0;shape=mxgraph.aws4.group;grIcon=mxgraph.aws4.group_aws_cloud_alt;strokeColor=#232F3E;fillColor=none;verticalAlign=top;align=left;spacingLeft=30;fontColor=#232F3E;dashed=0;labelBackgroundColor=#ffffff;container=1;pointerEvents=0;collapsible=0;recursiveResize=0;" parent="1" vertex="1">
          <mxGeometry x="40" y="80" width="780" height="650" as="geometry" />
        </mxCell>
        <mxCell id="ciRk2GcdctBLouNBX0Yz-14" style="edgeStyle=orthogonalEdgeStyle;rounded=0;orthogonalLoop=1;jettySize=auto;html=1;entryX=1;entryY=0.5;entryDx=0;entryDy=0;" edge="1" parent="UEzPUAAOIrF-is8g5C7q-74" source="UEzPUAAOIrF-is8g5C7q-77" target="ciRk2GcdctBLouNBX0Yz-9">
          <mxGeometry relative="1" as="geometry" />
        </mxCell>
        <mxCell id="UEzPUAAOIrF-is8g5C7q-77" value="Bucket" style="outlineConnect=0;fontColor=#232F3E;gradientColor=none;fillColor=#277116;strokeColor=none;dashed=0;verticalLabelPosition=bottom;verticalAlign=top;align=center;html=1;fontSize=12;fontStyle=0;aspect=fixed;pointerEvents=1;shape=mxgraph.aws4.bucket_with_objects;labelBackgroundColor=#ffffff;" parent="UEzPUAAOIrF-is8g5C7q-74" vertex="1">
          <mxGeometry x="400" y="57" width="75" height="78" as="geometry" />
        </mxCell>
        <mxCell id="ciRk2GcdctBLouNBX0Yz-13" style="edgeStyle=orthogonalEdgeStyle;rounded=0;orthogonalLoop=1;jettySize=auto;html=1;exitX=1;exitY=0.5;exitDx=0;exitDy=0;" edge="1" parent="UEzPUAAOIrF-is8g5C7q-74" source="ciRk2GcdctBLouNBX0Yz-3">
          <mxGeometry relative="1" as="geometry">
            <mxPoint x="190" y="96" as="targetPoint" />
          </mxGeometry>
        </mxCell>
        <mxCell id="ciRk2GcdctBLouNBX0Yz-3" value="" style="image;html=1;image=img/lib/clip_art/general/Full_Folder_128x128.png" vertex="1" parent="UEzPUAAOIrF-is8g5C7q-74">
          <mxGeometry x="30" y="56" width="80" height="80" as="geometry" />
        </mxCell>
        <mxCell id="ciRk2GcdctBLouNBX0Yz-12" value="" style="group" vertex="1" connectable="0" parent="UEzPUAAOIrF-is8g5C7q-74">
          <mxGeometry x="190" y="40" width="112" height="112" as="geometry" />
        </mxCell>
        <mxCell id="ciRk2GcdctBLouNBX0Yz-9" value="" style="whiteSpace=wrap;html=1;aspect=fixed;fillColor=none;" vertex="1" parent="ciRk2GcdctBLouNBX0Yz-12">
          <mxGeometry width="112" height="112" as="geometry" />
        </mxCell>
        <mxCell id="ciRk2GcdctBLouNBX0Yz-10" value="" style="group" vertex="1" connectable="0" parent="ciRk2GcdctBLouNBX0Yz-12">
          <mxGeometry x="11" y="18" width="90" height="70" as="geometry" />
        </mxCell>
        <mxCell id="ciRk2GcdctBLouNBX0Yz-2" value="" style="outlineConnect=0;dashed=0;verticalLabelPosition=bottom;verticalAlign=top;align=center;html=1;shape=mxgraph.aws3.android;fillColor=#FFD44F;gradientColor=none;" vertex="1" parent="ciRk2GcdctBLouNBX0Yz-10">
          <mxGeometry x="40.909090909090914" y="18.78048780487805" width="49.09090909090909" height="51.21951219512195" as="geometry" />
        </mxCell>
        <mxCell id="ciRk2GcdctBLouNBX0Yz-7" value="" style="shape=image;verticalLabelPosition=bottom;verticalAlign=top;imageAspect=0;aspect=fixed;image=data:image/png,iVBORw0KGgoAAAANSUhEUgAAAkQAAACkCAYAAAB2OzHxAAAACXBIWXMAAAsTAAALEwEAmpwYAAAgAElEQVR4nO2deZwcZZ3/P9+qnkyOyTG5yBw5gElmMuYgJBgCASIry427yqCAuqCYsKCuoKsuHiHeogvi4sWPhdVVcAmgq0JUcDMggUCIkIQMM5Mh5JjMkfs+Zrqf7++Pme6urq7j6e7qa+b7fmXSPVVPPc+3anq63/N9jiJmhiAIgiAIwmDGyHcAgiAIgiAI+UaESBAEQRCEQY8IkSAIgiAIgx4RIkEQBEEQBj0iRIIgCIIgDHpEiARBEARBGPSIEAmCIAiCMOgRIRIEQRAEYdAjQiQIgiAIwqBHhEgQBEEQhEGPCJEgCIIgCIMeESJBEARBEAY9IkSCIAiCIAx6RIgEQRAEQRj0iBAJgiAIgjDoESESBEEQBGHQE8p3AIIgCNmiu7t7RGlp6aWGYfwjEVWNHDny4nzHJAhCYSJCJAjCgKKzs3N8WVnZ1cz8D8OHD/97AEP7d23IZ1yCIBQ2IkSCIBQ9Bw4cGG2a5s1E9A9lZWUXADCIKN9hCYJQRAwaIVr8hd+NHFE+dAaDphiESjAmM/N4MI9h4nIoLieQoVgNATCcwSDGcQb3MCMC4BCYDzH4EMC7EaEuRqQDCu3oCbetvqehK9/nKAiDFSKaB+A+ZnYt47VPEASBBuKbxJXfe2YSo/QigBYAfDYrnkmEir5T5f5/DDAjugng2Btm7JrE9lu3M5LrARjqKBS3MdFGxZE1xonIquf//UM7c3rigjBIOXjw4BLDMFZ7lWHmDaNHjz4rVzEJglBcDBghuvye1bUG0YcB9T4QzUaCvMRlJlFiOEmGrBKUIENRgXKUIbd6+AVW6oEXv9P8JPNylaNLIQiDDhEiQRAypeiF6Krv/eUCIuNuJro4JkD2TE9UVJLkpf8R/cfYZcieTbLLULQNuwzF2u7bp5TaDFZ3vPjd65/N8uUQhEHJwYMHlxCRrxCNGTNGhEgQBEeKVogu/f6fRwyhkv8AGTcnZH8SMjr9z5xkCEjMAlkkyDELFG0Dti41u1QhUYas8SjFP+3cffKOdx656WR2r44gDC5EiARByJSiXJjxim+vmlBiDFmTJENwkiEk7HOUIcRUJ3acXaDiMhStJqG15KyUQzwG4dbKiUNXL/zkL8YFfU0EQRAEQUifohOi96xoDBmlw35DoLlJ8uHaJZY8PgiWx0Spgks9sGSOXKQqcfyQWzznmsNKnl2w7MHRWbg8gjAoCYfDYGbfL0EQBDeKTojKynA7gc53kg84yFA8MeQsL4lSlVwfO9TnLlWa8RDPKxk5/BckC6UIgiAIQkFQVOsQLVj2YMmk2tovUNKMsL7/mIHSEgOLaibg9IllYAaaOw7i1S270Rvv9fKcXu8kQ8ndaMnHu8XjNiYJRNece+cvbgHw/wK/UIIgCIIgpERRCdHEmpr3EHNFcndVn3TMqh6NL1wzG+PKShOOa99/DN94agPe2X3YQ2LimSI3iYnLkptMJcYTr9ZhTBIDTPj2rNt//NibP7rtaICXSRAGJdIlJhQqe/fuXQCgzKtMb2/vm6FQKEREdaZp9paXl6+xl1mxYoVx++23XwgA48ePb8xOtIOXohIig3Bx8kDmPvmYNqEMX2+Yh9ISM+m46rEj8N0bFuCf//Ml7D18wn0MEKwyY5EYJMpMkgzBVk/sfZnhJEOx+kHjyoaOvAXADwK5QIJQBOzbt2/huHHjXsl3HIKQK0zTfAjAXK8yRPSPAMYYhvEIAOzfv3/K2LFjExb3ve222xabprk6ekhWgh3EFNUYIoYxJyYUNvn4+JIaRxmKMnr4EHz0gppkGbIJT1xW4jIEt7WGov9b44kPWnKf4WYVKKU+kvqVEITiYu/evbX79+9fceDAgTbDMNbmOx5ByCXl5eVnlZeXU3l5OR06dKgcAJj5/ui28vJyGjdu3G+txzDz1fZ6TNO8IVcxD0aKSogANc1JPkaUmjh72ljfoy+YOcmmOg5dWdE9MYdhux71b7Zlf5BYj9cMt4RsEtHZC5Y9OD6VqyAIxcDevXsr9+/ff8f+/fvXmabZTERfBXBmvuMShCLgbSK6yrph/fr1JUR0HTO35CuogU6RCVHfTVeBRPkYW1YKnQlbI0pDGD7EdBgk3V9j0rgfv+n1TuOL/Ge42af785CSOeldDkEoLFauXGnu37//5n379j1rGMZOAPcCWJCL6e8y7V4oFrxej8wMpdQTzHxxd3f3iOj2qVOnXqqUGgbgD/Jazg7FJkSjneTj8PEerYPDEYUTp8IWH3LI6CTIEjxkyH96fXRGmtPxVqkyTVSme0EEoZA455xzRgJ4mIjei+J7fxGEgoCZnyCi0lAodEl0m2EYNwJ4Riklk3CyRFG9YbFicpKPg8d6sHX3Ed/j//bOPiggSWb8ptc7PcaHGnlNr7eWc5Khvv0RxUU1uF0QBEHIHkePHm0D8CaAawBgz549Zcx8DRE9mt/IBjZFJURe8vHz59s8jwwrxs+fb7VIjXM9dhnKZHp9ojS5SZWkPoWBRb66rvzaVEplpV1BSBW33wGlVGyfUupxZr5yxYoVBhG9j5n5+PHjz3gdL2RGUQmRl3y80rYbP322GcrhhdIbUfjOb99Ay64DfcfDKjNOMhRtxyYvSJQYTiiXPJYoJkOWE2BbfYIgCIJgJxwOP0VEE2+99dZ3A7gRwB+qq6tP5DuugUwRdtU4ywcz8Jt127D+nb24ct5knDFxJCKK0dp5EL97bTu6Dx3vP7r/WLsMwV4fJ7QYExyH6fWO8VhLMSNJqmxtC4IgCEKUSZMmbd67d2+LaZofI6JLmPkD+Y5poFN0QuS3ts/2PUfw4z9tjm9zyALFJMZydMJaQwnt2YQHNvFxi8c+mDr6v2M8gjBwyEc6PxwOIxTyfjuTbgahUPCbZWZ5vpKIvsTMRw4ePPin8ePHQykFwyiqzp2ioaiualxHvMb1+MlH/IXoutZQitPrneJBUj1uXXPyJi0IgjBYCIfDCsB2ItrvsPsogO39ZQDgKQA7mPkXNTU1pwDAMIyDALbnJtrBRZFliBIHJ/vLB1wkxtpl5rfWEDtKTOLMNPfjE6XKLZ5IEBdHEARBKHBqamoOA5jmtG/ChAlPAHhi/Pjx0e9ft5cdP378DyC3e8oKxSVEKcuH8/R6p7WG4PIYT+I4y1Aq0+tdp/uLDwkDiHx1Tfm1K11mgiB4UWRdZqnJB2Ll/Nca0pte7zYzzdqOm1S5xyOTgQVBEAQhvxSVEKUqH2yTGecxPA4yBCcZgmM9CZmjWJxuY5tc4hEEQRAEIa8UWZcZPw3mEUA0q8KASswYRfeoqNqo/m2WQsryX3IandG3fpt6D4FGxXf3yUzSGCBYHq3T621rDSVN94dVhqTPTBAEQRDySVEJ0Z/uuvTGXLW1+Iv/8wYTz+37TnN6vddaQzERimavotVIn5kwsCjUMUSCIAheFJUQ5RzbeB/f6fXR/1261lxnuAkZ0dnZOdwwjDOUUpWmaU5g5gkAhjLzUCLaBeAwgOMAtu3bt6+lvr5e727AWaa7u3s2M4+dNGnS8/mORRjYtLW1lY4cOXI6EU1XSlUBGA5guGEYzMyHABxh5q2RSGRLVVVVe57DTZtt27aNKS0tPdMwjGpmrgYwAn3nCiI6hL5p7d29vb1vtbW1vbNkyZJwPuMVCgsRIk9SnV7PNh+yyxAny5D8VZsS3d3dI5j5IgALDcN4N4BZpmlWA4BpmgAAIkp4tDJ+/Hi1e/fuTcz8tFLqNxUVFa/lLHgAnZ2ddaZpNjDzB4noXQDuB5ATIWpvbx9GRLVeZUKhUOS0007b5FdXU1NT2ejRo2vs20tLS0fqxLJr166zdMoxc0u+b1fQ2dk5hYjOADDFMIwJSqmRhmEMVUqdRJ9ob2XmNysrK1u4gNJUnZ2d8w3D+Ecies+oUaMWAjABJC3qZ/19MQwD3d3de4loNTM/29vb+2R1dbXTejl5p6mpqWzcuHELiWgxM58DYM7w4cMnR/c7/f5HGTJkCOrr63t37979KjM/A+B3p5122ps5CFsoYHIqRFd+97nZMM1LwHg3k5oBRdUMNSSWeIn+H5MJ97WBoo/xbqv4OKG+cUPO0+Ot9TgtvIi+mgCokWDSikd3un9i5shyHlY6P7cYBv6gfVGZD4CoDcxrEOYnUX2v74dZsdHd3T2Rma8D8H4iWkxEJUDaXSQGgLkA5hqGcVd3d/dLkUjknsrKyv8NMOQEduzYcUZpael1zNxgGMbZSa+bHEFEtaFQ6HWfYocAjPGra+zYsQuIaLXTPp3z0ogDABAOh+cBeEOnbFDXs7u7exYzXwbgvQDmG4Yx3toGEcUeoxAROjs793Z3dz/JzA9PmjTp1UCCSZGmpqYh5eXlNxuGcZthGHOiMafIeGZuANAQCoUe6Orq+g2Ae/N1TlY6OjomG4ZxPYCrxo0bdx4A07aycyrVlQA4v//rm11dXS8ope6tqqr6XSGJrZA7si5E5925ctjYqom3gPmfKRSaCWYwAdT3H/q/ATNAFvmgfvmgmPswCIlSlCgfffLCtnrBBKZ+A+l/IwNRn4z0P0a9xxoHJ8mQZRiQJY5UpvsnznBz+VCkSAgwR2tfYKLRAKaB6L0ooeXouvN5MN+Jivv+pl1HgdLd3X0xgH8BcAURZeu1ep5pmr/t6upaBeC2SZMmbQuq4o6OjvcahvGN0tLShYD3X6xCftm5c2dlKBS6yTCMmwBMT+dnRUTjASwjomVdXV1/VEp9prKysiXoWN3o7Oy8cezYsV8notODqpOIhgD4IIAPdnd3/28kEvlCLs8JAFasWGF84hOfuNo0zU+ZpnkxgKz8IhHRhaZpXtjZ2flKe3v70urq6o3ZaEcoXLI67f6q7zd+eGz1xLcJ/EMQZma6tk/68gHX45PjgU89GtP9kXh+vvEEBgPARSB+FR2f/kLAleeMrq6uK7q7u18H8BcA1yAH4k5ElxPRho6OjvcFVadhGIuJaGFQ9QnB09XVVd/V1fXzIUOGbDcM45sApgdRLxFdZhjGxq6urtuDqM+Lbdu2Terq6vq9YRi/DFKGHHifYRgbOjs771ixYkXWl2xZuXKl2dXVddOyZcveNE3ztwD+DlmSIStEtDAUCq3r7Oy8NdttCYVFVj5oFt/zu5HloVGPkEEfCHJtn+ijlnwgsT7vtYasvVesHQ/b6rO2qR1PYEQbZQAwQfQddH56Iip++NmAG8oaXV1d9QB+BGBJnjLWowzDeKqzs/P2ioqKn2Zamc5NGHN9nkG1p3Mz1VyS6s1dt23bNmno0KHfAnATAMrSz2EIgAc6Ojrqq6qqPpmNbphdu3adW1pa+jsAE3L0WiolonuXLl166datWz94xhlnHMpGI7t27bpq8eLF3wVQD+T+9wTAECL6SWdn55SKioq7ct24kB8Cf0e74turJpQPGf0cgL7+a/T93/dZrScfScKSzto+7CwfseOt8cQ0xza93i8ey74kgfKKR/9yahC7APF2Y2LEd2LXJ3ei6oGCvu/NihUrjKVLl/4bES1HX79+SjDzHiJ6G8AOAN3MfaPIiOg0AGcAOBv6r3WDiH7S1dV1fNKkSb9INRahsOl/rX166NChXwdQlos2DcO4raOj4ySAQP846erqutYwjF8Q0bAUDz2KvoHgXUQ0mpmriagqlQqI6NLhw4ev2bVr12VBzkrbuXPnmaFQ6IemaV6RwmHMzG8BaCKircx8GMAxAMOJqIKZZwBYQERjU42HiP6to6PjYGVl5T2pHisUH4EK0VXfebrcKC37PwCzgKjVa8qHdS+nKR+xaqxT5eMk3XUeifXEj/GIJ95aQvbIKfuTEI+tvmBIkJ9EMYpuJ/4edi1tRNWDWgNTc83WrVtHL1269H+I6NIUDjsG4Glm/n1vb+9LU6ZM2epVuKmpqWzs2LHvZ+Y7iWiuZhsPtbe3t1RXV7+SQlyDiXZmvt9heykR+XY1uBzrVG5PypG5U7506dLVRHRhCseEATQzcxf6XnfjANT1jxfShoju7Ojo2FxZWflwKse50dHRcY1hGL8mIlPzkLXM/GsAf3rwwQdbly9fnrD62dtvvz1xxIgRF/bPfnwf9P4weZdpmo3t7e0XVVdX70r1HKw0NjaGZsyYcWcoFPoaEZX6lWfmU0T0GwBPHj9+/Fm/TNXKlSvNxYsXnwdgKRFdj/4ZdzoYhvHt9vb2V6urqxt1jxGKk8BSxbRihXHVqPesAvPfAw7ykSQN0cd4BsVRPrTrAaIi4F5PdHtq8ViPT55e7zyjzC+eBJhvfv0nt/4XAKDrjiUgc7X31fbMCiWKYp9UrsPkny7MR97Zi7a2tgnDhw//MxFpTcEGsBrAQ5FI5DfpTMXuH5x5K4B7dd50Abxz4sSJeel2C3R0dNzdn/VyRSl1f1VV1WfSqT9Vdu3adZZhGL6zzCoqKnxnmbnRvw7MAb9yFRUVgY4FaW9vX2Kafr832mxn5l9HIpFnjhw5stZp3arOzs6zmfk2IroJ+h+ux8Lh8NzJkye/nUlwO3fuvNA0zT9qZoZeCIfDn5s8efI63fo7OzunMPNXiejjmoe8GYlELkp3ev6uXbtmGIbxSwDn+JVl5n3MfB8z/yTd9jo6OmoBPEREi3WPYeaW1tbWWbJu0cAmsIFxV4xc8plEGYKvxMQTMfZB0m7yEZwMIYV4Up1enzh+KPm8MsMqPyoqPEgUI5VYjvgc7PjEBwNoPDCIiEaMGPGMjgwx8++Z+eyKioqLKyoqHk13XZrly5erysrKHyulLkLfYo1+nD506ND70mlLKEqeUUq998EHHzyjsrLyi5MnT37BbRHPioqKv1VWVt4CYCGA7Zr1jzBN895MAmxvb68KhUJPaMhQLzPfXllZuSQVGQKAioqKHZWVlbdEIpHLmXmvxiGzTNP8JaUxNW/nzp0LiOh1+MtQmJnvOXny5JlVVVXfzGRtpMrKypY1a9YsYeb/0D2GiGqnT59+Q7ptCsVBIEL09/c8W0nMXwNSk4/o9PNM5AMJ9cXrcXqMJU5c5YVt5ZziscubVzzxTE7myRmnTJDtecL3yl7ucxkGECirV682ASzwKsPMJ5n5Q5WVlddUVlZqrVujQ3V19SuRSOQa9HWHeEJEN+/atWtRUG0LhQcz/z4SicypqKi4sqqq6i/27iQvKioq1vf09CwCoJX1IaJrOjs756cTZ2NjY8gwjMcBTPAqx8wnlFKXVVZW/jiTgdzV1dV/JKILmFmnO+zy9vb2lAcfh0KhaiIa7lNsj1LqnMrKyi8ENYi7oaEhUllZ+Wlm/pHuMUR0SxBtC4VLIEJUapZ8hYhGpC4fyFg+2Es+HDNG3jPcEuN2kyprO17xJJ5X+kSFRyEp+wOVLD/2DBIYIMzH9lvmZRhIrmmprKz8n2xUXF1d/bxS6m6dsoZhaP8lKRQPzPwGgAsqKyuvqa6uTntB06lTp3b29vZew8zHNdv9ZDrtTJ8+/V+I6DyN+q+rqqr6v3TasFNRUdGslLocfQOxPTEMY/mOHTveFUS7Vpi5o6qqKitjIDs7O+8AoLXgJBGdv3XrVv014oSiI2MhuuLbqyYwcFN68mHN+PjIB1KUj+jxsEuMtVxyHLF4oifo1g3nFg8S6wtMhpyEJ0l+nMTIIlBGRHdMQE5gZt+vbNLV1XUPMzdrxDG/vb39slTrV0rl9fyc8ItHqczvNJyvn6tOu/1fxyKRyGdaW1vPqaioeDGItqdMmdIE4G7Nc39/W1ubzhi2GNu2bZtGRF/TqP+7VVVV+ivda1BdXb0pEoks02i7xDTNB1PpOguHw3l9H5g/f35vT0/PP2u+boySkpI5WQtGyDsZC5E5ZNgNBAz1ko/4h3SK8mETjFTkI3Y8W+KJteQcT9I52KXKLR5r3exwXmnRnxGyy5A98+OVFbJnlhRdK8slx5k/f34vgBU6ZQ3D+HKWwxFyADM39vb2zq6urr4/6AGyBw8evJ+Zd2oUHTV06NBzU6m7pKTkbvTfpNQNZt7a09Nzdyr16lJdXf0o993zyxMiOm/Hjh2BLW6aC6ZOnfo3AH/UKUtEU7McjpBHMhYiJjT4yUc8GZOifNgFSlM+krI/sLVtjccWR4LQWeP3iidWjcN5pQrRSEf5iQXtkPlxFCOH56ROw/Z/Ojv1oAYua9asWcnMHRpFz9+xY0d91gMSsklzdXX1xVOnTn0nG5XX19f3ENFDmsW1x6W1t7fXENGHNYp+bdq0aSd1602V3t7ezwKI+JUzTfMbuVjJOkiUUv+tUy6LtxASCoCMXrSXfPe50VC8yFc+wNryEZMNu0DZs04u8hHvMrNkcrziscWRWI9XPNbinFBPqjLEfTfU7EOpkclS05/hccz8OMmPpaxdklT4Su3Asky+u8yAvsGVSqmf68RimmbKXY6FcI5Rent7cxJPoXaZKaVOcZYvuFLqUZ3zJ6IZunUS0WeZ2fQ5t11btmz5VTbPbdq0ac1KqV9rnN+7Pv7xj2t3MRfC78ipU6ee04kjiC5loXDJSIhKQsZ5IDJ85cNiD37yEfeP1OUjsR33eOJu5ny8Xjz2zFHyeekSZrIuLHiG9nT6mPw4iZFbt5r+2huDiN9olrs2q1EIRU91dXUbgGaNopN16tu4ceMIADf6lWPmX+RojZwfapYrqhlZZ5555m5mDmzFbaE4yUiIDKZFVvlA2vJhPZTTkw8HGXKLhxOkKnpYavEkZ45sx2vCwLHNLV2bYxsIs5xFxiJAflkhz8ySWoSV12mv0joYePjhh9cD0FkRecquXbt0V7oWBinM/DeNYiN06ho3btz7AYz0KxeJRB7XqS9TqqurXwXge7d7Irq6ubl5XA5CCgwi0hn/JQxgMhIiZj43LhVu8qIjH9aMTxrykZQx8osHtnLu9cGhvsR64tKXZmr3T7x6ed9fdkQE5iXeGR6XfdbtXpklQhkWGLPSCTRo8p0mj7J8+XKllHpJJ2UeiUS0uwKKcZZZsXaZ6cxWyhVKqY0a18Bv7R0AADNfrdGN03X66advyPZ5RVFKPalxfqGysjKt35VC+bkx84FCiUXID2kLERERExZGP3xTlQ9YHjOSjyQZssYDx3qsQcVe4i7xMBLPL1YPEutL+5eF+ZHY8/ZPLQT4tLjUuI0dcpIhB/lJ2GfNLMF3LZPBBjNr3bOMiM7PdixCcUNEu4Oop7GxMcT9q//7tPci5/DTmoj+rFOOmVO5QWveYebefMcg5Je0heiyb6+aSoxRANKSj2SJSU8+rEfG6mHr3uR4ko6xx2NrMxaP9Sw4cxliYPOGn3bHp7Ia6mZn+XHs+opLjqf8WPfF6pBuHxtEtNm/FEBEC7Mdi1DcENHBIOqZOnVqPRH5LgSolFofRHu6nDx5ci30Vnm/IAfhCEJgZJAhGjIbsGRqUpUPpCkflhisg58Tpar/WWy3ZVt/fZ7x2IUuuidWjSUjluJ1s8LMn2buv03A9mUVUPzR1KfT21avTpYf2z4FMM/OIOzAyEfXihu9vb06CzSCmSdu3769Qrdeje6ObJ5WyvEUa5dZPtu1Ew6HOYhYDMNYoFMPEb2Vg9OKUVNTc4qZN2vENrmtrc3zNiORSKRgfm6FEoeQPzIQIp6VsnzAojr2LJCXfNjq63uwCRgS64kLCyfW4xIPXOLh+OGIioVTPCnDfP+Gn9waX16/pORrIAztE5c0ptO7rlLtON6oIMYQFRKGYezQLcvM2lOmBSFdiEgrk9vb27vVv1SwMLPOTDoMGTJEVnYWioa0hUgBZ+jIByyPCRmdVOTDLjGxgvHjnWQo7mb+8bCtvoTz8oknVRh4+o19//fZ2Iadt14I8C2u8pMgRimOKWLLMdF9xKPQ9oHqtIIfoPQvaLdPp6xhGCJEQi6YqlMoFArlY7r4OzqFmFnrHAShEEh/lhnzZB354LTlA4nSkSRDnJhZcjyefeJBQjvpxJMGK8N7u97Pjz/et+Jr67LxMOhR97WE3KbTO8mPW2bJdkzfPq11UAYTzKwz9R4AqrIaiCD0ofM7GpkyZcqBrEeSjM7q7iAieZ8RioZMliGf7C4ffQVSlY/kzFGyBCF2PJKOTz0ee+YoxXhSgXFcMe7a+LNbf8jRCtYvG45Jxu8AVMXlJRqIXWos2xP2AcnyE7NTh33925WaAuDl1E8kOPyuY6777Jn5kH8pgJkn6pRTSsEwCusOBrm45vkaa1FIr6cgYmFm33V8mNn3LvTZgJm1sqkAyjXqymh/kPi1JStVD2zSfrdmxmmJsmD5zAanJR+J3V/ux8frcepm844nWar624G1Pqd4ooel9svJwDFm/pkK99Ru+Omy+2MytHXZaJxm/gHAopiseHV9aU2nt233XsFausxsENFhzXLjsx2LIBCR74KMsN72J4cw83HNomOyGoggBEgGGSIuTZSF+GNMGVKVD1jrc5Ah2OqJN5RYDwMMpZhxgICj1nj6jldQ0eOsxyRksmwCBQaz1l8Hhxi0DwpNDDRG9kf++ObjtyX+Fbdz2ZkYYjwFUnPibThkcazbfffBVs7hGOs+g8fqnMwgQ/dNfmhWoxAEAMxsEpFvsVzEki7MLKviC0VD2kJEQFlCtxcsj/1ZjISMjk14YjJkPZot9VkyMbHjGTapipYFmFmB+TkGPR1W4b/u3a/eeueRm7J25+e0WEEGPrZsKcj4LohHaXdvJcgPPDJJsJSz7rMdAwY4onXrgGxSSKlyoC8drvEBBGYepVtnoZ2jdJnlhoC6zAIpky0044tkWk+uzlH3918YuKQtRJ7T6+0ZHVsmxvrhHv/ct8tVdLMt+4PEepTiY2D1Y3UKP1z7wxsL8+Z8K68zsWjcNbhl2VcBOks7i5NWVggO5Zzq0ErHC4KQJ4jId+VkIir0DIyvEAlCoZDJoOrkLFAse9P/P8cf01nbx296vVL8G3VSfbogRWjHbeUgOgcG/h6Lxn0IFJ2ZpFxEJoUMT9pZIWu7qk5AjOkAAB1ASURBVNDfSAVhUMPMx/zGq6WSrQyYYZrljmQ1CkEIkPQzRIqPglBmsxtbRif61C5D/mv7eE2vZ3APWH3qpXtueDApsK47poHpMpDxbgBTAR4DQsAf/tw3xhmM+CDl2PkMA6EcIZoQExSKn2tcUABnybFt98oSpX0MAFZ5/8utUFLllva03uSZWasrVmeWWS5nrfT29qKkpMSzTKbX/ODBgxgzJvfjaMPhMEIh77ezXL2eIpEITNP7LUczlr0a6/iMWrFihbF8+fKcTn9SSo3RmUHpNxstwGuVMTrtRCJ5f9sUskj6QkQ4RcxlQPyFFNjaPkmDsePHMdThCPM/rP3uDasTAur83KUgfBFkLkFCN3CQfcIWoSBL1iUmPHCRH3t2xi/D41BHoN1qDCj5y80B3/tGAQAR6Q6+FoS0YeYunTEtH/3oRycA6M5+RHGIyHc6fT+dWQ1EEAIk/UHVirtAGBf42j6OGaPYwOkTiPDVa79/wwuxQLr/eSIw/EEY9L50z0UPD5HRzfwEmeHxq8MvJkOdCuzSDBy03uRTWMBRENKGmds1B/lPRu6FSGvpCaVU4Q1nEAQXMhhUjXYwv6vvG2cZSnltH9exRH27I4qXJshQx2fnwRzxBwCV6Z6HP37ZGaftcCjnlcVJI8OTshjZ69dbaTabFNrNEpl5kma5rhTqTD+gLDCYZ5nlkoBieUuznqkAXguiQV2UUlM1Z2Rt9iswAH9uQpGSwTK6/eZvz+hYlSb2uW2RIMu+PlmKvwBjxzMsMhR9VI+s/d71v4wV7rzjbJhoRE5kiJF0P7DYPqfbaPguihjf7jpY2lK/VjlL264xWb5Xanv2rlvxsXXr1tFEpDtAVa6dkHWYeZNm0dlZDcSZaX4FmPnQmWeeuTMHsQhCIKS/UjXQlpTRsWeBLNmJhIUOOWFL/2ZOPD6hBO/h3uOfixXedvskGMYzgPYHWBqkKiFO5dzuQ+YkRm4iY5Mur3bZXp+TkMXa1r67+2CAmWt0yyqlmrIZiyAAwPHjx18HYm+CXuT0jvIrVqwwiKhWo2hOs1aCkCnpjyFibmIQohJjl6HYhzFg6d1Jb3p9RPH3X7734/tjjQ8d9jCA09KN3RurQNi/t51bRgOnLYLoWJ/TPod40mqXFXr3tgR2ydKkwNLTs1OIR0uIdGaZFdrCjMXSRiG160QQscyePfvA1q1bNwKY61P0vIwbS4EPf/jDZzCz78KuzLxap75C+bnJwoxC2hmiU6fUprgEIUliLMOCEP0wjkqQswzFZ6Ql1KP4yJFjB34ca7jjs9eAcHm6cXvjkIFJyLpEszUpdn2lfB8yt30OXXGu3Xae7W7GnA3HsnMNixMiOkenHDNvrqmp0brnmWa7ZUHVJQxI/qJR5rTW1ta6rEfSDzOfq1NOKfVctmMRhCBJW4he+MY121jx0bjk2GUo1en1CWYVO56JH3/zR5Z7gRn01XRjdscmP0kS4iQ/TmJkERbd7i2n+p2EzDcmj7FD9naZJZVtg5kv0ilHRM8H3O7wIOsTBhbhcPi3OuVM07wy27FEMQxjiV8ZZm5/9NFH12U/GkEIjgzuds/MwCtuMmSVG73p9YnHxx7D6nexRnfdcRYI89ON2eVMkkXDMSvklMXxEBnH7IxHhscvy+SV/dHOLEX3Rf4a7DUsbrZu3TqFiN6lU1Yp9ceAm58acH3CAOKxxx5bw8y+A5OJqCEX8axYscIAcIVG0cdyvVikIGRKBrPMADCv7Xvs+y8xI5T42FfcTYbYcjwS6jmpwvFp9qZxdUbxJgbvkoFJRTRsdWSUFbJknHTq0I0peR8Dp1YFdx3Th5k9v3K1ijMzN/jF0h/PYQB/TqHqUxr1zlm5cmXObqOic57F0EY67eZyVfCgYlm+fLli5l9qXNOFW7ZsmZnl08L1119/PjNXaMTzc906C+XnpvkekJNYhPyQkRApYC3DKjMWCYJVhixvgpywN2o/MRmKf3ADinnn6/fddNDS5PmZxBvHQU6SJERj6rqX4LgKiUWAHMtpZpZ823LNdv0N9a9qr6Mz0CEiYuZbNMs+VVNTo72gJRH5rgZORGVz5szRGpMxkMilBBY7kUjkAWbWudHrp7Idi2maH9Mo9kxNTY3v+kOCUGhkJESncPIlKFYxGUJchvo+gBO2wFqq7/PbdkxUrGJSxYmLBxLOzCTeWAS+suKSnbHKiZfIaGWW3OTH4Ri2bE+qzy2z5BJThP8382s4cGhtbb2CiLQGpIbD4R+lWH2bTiHTNG9Ksd6CJRKJ9OiUmzdv3thsxzJQqK2t7SCiX/mVI6KbW1pasrYuW1NT0yRmvsGvHDPfk60YBCGbZCRELy1v2M+El2OaE/MatyxQPPvjnEWKbolVZLuJJk1IP9p0Mzw+x2hnljy6t1Jq10mgXMSIHWIifjT9axgs+epaidLY2Bgiou/oxMHML9XW1qY0GL2np2eDZt3/1NzcPC1Lp5lAtq/5/Pnzjyulwn5tRCKRQIUoHA7n/fUUJRKJBB5LT0/P3cx80qfOoYZhfCtLp4WSkpK7AQzx6VL6fU1NjfbEg2xcq0wolDiE/JDZGCIASqmngajzcFyGLI99D/0vpqgMWR6tMhR3oSBffB4ZnphApDpwOoUMj68Yec1kS6Vdr/NQAPgVzFrzdoAXNqsQUdrrZOlQXV19F4BZmsXvSrX+mTNndgLwXW2YiEpM03ywf8Bq1lBK+a4dExC+K3kbhqG9EKYAzJw5czuA+/zKEdFHW1pa3hN0+21tbecSkWfXMjP3RCKRz3mVEYRCJuM34EgvP2mVGW8Z4gQJcpIhtkqVylSKohLiJDUpTl1PEigX+fGq36k+pwxPssg416Etbv3XUalHMrygueZdW7ZseTYbg0VbW1uvALBcpywz/yGVv3ptx/63TjkiuuTGG2/8Xjpt+LFixQqjra3tNsMwnslG/Q687leAmf8uF4EMJPbs2fN1ZvZbUJUMw/jlxo0bJwbV7qZNm8qZ+VcAPMd9EdFX6+rqWoNqVxByTcZC9Ndv/WMrM//VKjMAHB+j3mOVIFcZytSFfLu3fLMpDnWkICHs1a5XHal0uelmlgCAD2PfYd9xCLlEM1X+XgCbWltbfxbU+Ijm5uariegJZjb82ldKHent7b093bYikcjDzHxYs+vsztbW1odWrVpVGsR5AkBra+vl119//RvM/CMAo3LUPfGcXxtE9OGXX355WBCNRSmmrpd0Ylm0aNEJZv4IM0d86q0cNmzYqvXr14/O9DyamprKSktLVwE4w+f35IVf/epXaQl9ofzclFIFEYeQP4JJ0avI96wylJgRSnyMS1C0uFWGYr4EgKHSegF6ZUmcJCTVqetOYhTNLPkMtvZql+316cbkl1mKXZb/wpI34wtcFhcmES0lom2tra0PNTU1aa0ZZGfVqlWlra2t3zRN87cAtD6MmfmO+vr6tO/7VldXtw/A13XLE9HHzzzzzHWtra0XpNvm+vXrS1paWhpaW1vXEtEzRJTTm39GIpEnmNlvcPWE8ePH352LeAYSM2bMWMfMn9coevbIkSOfb2lpOT3dtpqbm6eFQqE1RLTQqxwzd0UikQ/JukNCsROIED3/zWv/wMzrAAcZgr37LHpU9MM7LkNWI0rPxe2C4icyHpkWz8ySl2hpDLb2bddJoFxisrablBWKcRIqkpXumFxCRCVE9PGSkpI3W1tb17a0tPyLzht+U1PTpJaWls/U1NRsIaK7oP+6f7i2tvY/M4saeOONN+5j5jW65YloNhG9sGXLltXNzc036Pyl39TUNKS5ufmiLVu23Ddq1KidhmE87vdBli3q6ur2EdHDGkU/39LS8pmsBzTAmDFjxr3M7Pu6JKK5hmGsb21tvb2xsVF7PF5TU1NZS0vL503T3ExEnjeOZeZjSqmr+sfLCUJRE8igVWbmC7+88pMMeplABhD9SO4XnKgMxbtv+sTJJkNOApVCFA4C4bDdcx8c6nDY7lVH2scghTp8Yk2+NA9gztp2jYuYUzJMQS/s/8D/QWtrazv33Y6kDcAeAD1ENJqZpwKYHwqFZgEwUmmPmV/cunXrbdOnT88kRgBAQ0NDpKWl5TpmXkNE01I4dIlhGEtGjhwZaW1t3Qhgk1Kqg4gOMnOYiMoBVACoC4VC8wAMK5S0PjN/hZmvJaLxXuWI6L6WlparlFL3Hj9+/Nn58+f7rrfj0Wa6hwZOtmPZsGHDsjlz5gwjIr9p8OUAHqioqPh8S0vLz5VSz3R3d7+xZMmShBm8TU1Nk4hovmEYV4ZCoesBjNE4hxPMfE1dXd36DE6lYH5uOnHIwowDm8Bm8bzwjYZXL/jyk/cQ8EWOZS9smhMVn9huiyABSOxac/14t+ElFPE2ncVI45i0RMZPyFJp109+/GSIu3GEv611KYuXaiKqtm/M4M7Vrx49evSqyy+/XHsRRj9qa2s7mpqaLjFN8zkimpri4SaAeQDmGUZfcqvQ78o9Y8aMvW+99db1pmn+CT4ZOSL6O9M0/66srOxAa2vry8y8HsB2pVQnM79QX19frF29WaOhoSGycuXKj86dO/cYgE/4lSeiKQC+YprmVyoqKsKtra37mfkQgFIA40KhUKozEPeEw+Gr6+vrX0kjfEEoSAKd5vtiq/py7F5PUeGxPMZkCByXIZsEJY5D8rNxqwzodiVxYjlHkUlltWi3hRpdnnvF5DneyG+wteP1YTB9DIte2u9zIQsSZm5h5q8DOOlbOLg2Hz958uTF8+fPPxR03fX19W1KqUXR7uVcw8z7mdmza4OZTwTV3syZM59j5o+yxirLANCf8bqCiL5CRA+Zpvk0AJme70JDQ0NkxowZS5VSn9IYsxWjfzmLiUQ0nYimEFFKMsTML/f09MwXGRIGGoEKET/eEDmx78AHmPlZv+n1fQc4T8+Pj0NybclFQtKYup4kUFYJcdrnM9haS2R8YtIWN9cLFL2+n8fsF3M11TpwiOhkbW3tV5VSMwH8HEAki82dYObP1NXVfWjOnDnHstXIzJkzOyORyGJm/gF8f4DBwMwvMfPHOjs7qwC86lM8sKwYANTW1v6KmS/xEzEhferq6h5g5gUAsn3T5kNKqc9t3LjxglmzZvnecFYQio3AF4J77WdLjx9ow1Ws+AdWCbLKkNP0+mQZchtY7SAnXpkWx2yKj+DoZHi0yulkeNzkyqVdHRliRMD8acx66ft+P698ojvdtq6ubtuMGTNuCofDdUqp/1BKHdE5VvOLlVJPRiKRmbW1tfdzDgY01NfX99TW1t4RDocXKaVeCPBcrOf0slLqrpMnT55RW1t7fm1t7SPRcSO5nlpcV1f3/NGjR2cqpe5j/9WW044l6PrSJR+rL9fV1W2aMWPGhUqpDzDzxiBfT0qpo8z8gyNHjtTU1dX9e0NDQ2B/mMhK1UIhkZWVgN98vKEHwB3n/+tjj8PAtwG6KFGGYJEhywvN8siAw8KMThLisN1rn3V70j6X7bHYHLIzKbUbVEyevAIV+RfMeXnApbPr6+vbAHy6paXlSwCuZeYPAriYiErSqG6vUuoJwzB+UFdX57fYXVbo73K4qLm5eQn6xoFcQ0RlaVR1ipnfBLCWiBpPnTr1wpw5c3anGZbvDWnTob8L8s7169d/a/jw4R8hogYiejd8FvvTRSl10DAMz8UziUjr3nKZwsx7mTkvsdTV1T0F4Knm5ubz0PeauoyIJqVaD/d1wa0B8Gsieqy2tjYrr4t8Xis7Sqk3iWiMTxm5MfYAhnJhvef/63/PAsxrmXgxM2rBfBpAJf16FMuARJ/HHpmfX3f/zUtiFXXdcRDAaH2R8dhn3e4lOb5ihIDa1RWyJPYCvBWMlxGJPIG5a1/U+Znkm8bGxlBFRYXf2JINtbW1Z3kV2Lhx44hQKHShaZqLAMwBMIOZJxLROCD2xr6fiHYDaGbmDUqpFzZv3vxykH/pBsGqVatKp02btrBfFKajbwbZqP7dPUR0XCm1D8A+AB2GYWyNRCJtu3fvbl2yZElYp43m5ub/JaJr3PYz82t1dXXnZHouOjQ1NZUR0dlEVNc/KH4cM0fHsxwFcEIp9e/19fXyIZQmRESbNm2aHQqFzgVQB2AGgPEARgAYib4u0mNEtF8ptZ2I3lJKvXnixIkX5s+ffzyPoQtCzsmJEAVG12cOgrl/TRZdCXEoq5PhCav3oOaxxhyc1aCksbExNGnSJF8hqqur8xQiITXeeuutRiK6yKNIY11dXeD3whIEQSh0snrzzMDh6KyzdLJCcJcfpzoEYXCyL98BCIIg5IPiEqKkLie4Z37SyQollCuo3hRBCAQiGu5TZG9OAhEEQSgwikuIFAME6MmPw/ZUxv0QfRFvX3uTpfF4e8qeqVLJZWLlohJmXVPJWk4BrB5C/V+LYuxPkPh11xZVd26RoJQa57WoIzNLhkgQhEFJcQkRFAByl5+0Bim7HEN8aWI5WPYhflz0s8X64Z1QDpZyDKsvxY9RjQAGnRAJuYeIKnyKyPoygiAMSgJfhyi7MFJbLTrVRRFtxyTsc7s7vdP6RpYFInVikt45IQesWbNmJIBhPsW25yIWQRCEQqO4MkRJmRafrJDX2KG0u9xSbVcnUzU4kS6z3FJWVlbhd03D4fDWHIUjCIJQUBSXECXIRfR7DfnxkhxPMYJDOR+5cmzXT8gEIfuUlJTUee1n5t79+/e/nat4BEEQConiEiIGQDpZnHQyPJZjtMTIof6U2xWE3MHMc70GVANo0l3gURAEYaBRXELkJzKpDpwOLMOTTkyCkHMW++z3u/GrIAjCgKW4hMi6MGMQ2ZlAutUscjNyMVC2CAiNA8J7gSMvAYdfcKhDACBjiHLImjVrRo4ZM2aJ1zVl5hdyGJIgCEJBUVxClGqGJ+2sEFKrwxgOVH8dGD43MdzRlwHHXgd2/hsQORr85RAETcaMGfMRAEM8ivCJEyeey1U8giAIhUYRTrtnOE6ND3Q6vcY0fuu+yi8ly1CUEfOA6uXZuySC4MMrr7wyCsCXfIqtOeecc+QmqoIgDFqKK0PE7D+o2nNwdKrdahqZpeFzgbKF3nGXLQKGnwUcfyPTKzCgkC6x3DBixIgHmLnSp9jPchKMIAhCgVJsGaKexOyM06KIXhkel+deizh6ZpYUULZAL/SRHtJEkJk9QlbYuHHjXQA+4lNs+1tvvfV4LuIRBEEoVIosQxTpANGE1DI8bhkjuEgSvOuwt2uO0Yvdq5ziTr1KBEGPlStXmnV1dfcYhnGnX9lIJHJnQ0NDTy7iEgRBKFSKS4iAvwE8N/vT6eFff3R7b7de5L17PHbSJr1KBhbSZZYdNm7cWFtbW/ufAM7XmMn3i7lz5z6Vm8gEQRAKl+LqMlORp2NdVRkPnI4+T/XeaLbth/+qF/sRl3KM9ZizZnda10MQLKxbt27ypk2bfghgExGd71eemV8FcFv2IxMEQSh8iitDdDL8ewwPdYK5Ip7tgX73lmu3GmzlNI6JtnuyFTj4NDDmSve4DzwNnNzivI/44TSuhCAAABobG4eWl5e/l4j+qbS09H0ASnxWowYAMPPfiOiy2bNnH8t+lIIgCIVPcQlR/eM9ePuDy2HQg+mP+4H72KG0VqkG0PF9AASMuSI55oNPA53fdzkh3o7D/EiKV2HAIAszps6rr746rrS0dAGAdwNYPHbs2AsBDI3u17lmzPwHIvqQyJAgCEKc4hIiAKh5/CG8fd11AL837XE/qWSWvAZlR+FeYNe3gP1PAiMvAEJjgfD+vm6yEy0eJ8PLsOilExlcDWEAQkT02muvTTYMY7phGNMBzAAwC8CsoUOHVmRQdQ8z33XWWWfdy2KbgiAICRSfEDEzmt//IZQYL4MwPfMMj5MA+QiTGydafATIeh74Ema99Ce9wsJgYu3atSNDodBWIjIDrPa5np6eTy5YsKBFXEgQBCGZ4hpUHaXuqX1gvhhKNcWFJdWB0/3b2eEYV0kK6oNEfQ2zXvxWQJUJA4yFCxceJqJAbrTKzK8AuHzOnDmXLFiwQNPWBUEQBh/FKUQAUPNkO3ByEZR60n+hRi/hcZhN5rhQYyAcRUTdgHe9tDyoCouVPXv2MDOfZGZ4fQ1WIpHIX/yujcdXDzM/FYlELpo7d+65c+bM+WO+z0cQBKHQKV4hAoCaZw5j+m+vBfgjYLUnnu1xEiPLlHmv6foJYhStIwCYf4tI7xzMeemxYCosbhoaGiJHjx6dyMw3MfOf0fdDEPohor+kUp6ZwwD+xMw3h8PhiXPnzv3AvHnz5O71giAImtCA+Su8ZfFI0Og7Ab4dwISkAdVpDbYOAOYXoOjLmPOi5oJFg5N169ZNKikp+RCAG4joHABg5g1nnXXWWXkOLS+sXLlyyPTp0w8S0TCn/cx8GMAbAP7KzI2HDh1au2TJkqO5jVIQBGHgMHCEKErje4aisvTDUHwLCH03EEt3On26MA4AeBwI/xiz1m7MvMLBxWuvvXaGYRjvI6LaefPm3ZrvePLF66+//gUimsTMBwAcJKK9Sqmtvb297yxcuFBziXRBEARBh4EnRFaaLpkCg68F4zIQLwZjWKIYAQHK0GYAqxFRT6O35y+Y/1pvxvELgiAIgpATBrYQWVk1vRSTqxfBwLlgng9S8wGcDiB1GWLsAfFGABsArEME/ye33xAEQRCE4mXwCJETjacPxejTzkAoNA3gKgAjQRgF4lEA9YBxEkwKxHugaBdM7kQE20V+BEEQBGFgMbiFSBAEQRAEAcU+7V4QBEEQBCEARIgEQRAEQRj0iBAJgiAIgjDoESESBEEQBGHQI0IkCIIgCMKgJ5TvAIKEiMhtVxaac5yexzJtTxAEQRCKjoKfdm+THLI9Om1z2md/Do3tgPtqjezz3P7ouE3kSRAEQRAKg4IQIov0OD3an/uVcXp022bfZ8XpwuiIjvXRbZtfGZElQRAEQcghORcim/y4CU8m++Cwz74NDs/d8JMfL+lx25bOPpEkQRAEQcgSWReifgHyExu/LyONY+ztweHR/tyOjgz5iY3bl0rjmIT2RJAEQRAEIRiyIkSaEuQkOYbDPrfn6cgSPB6d8OsOS0d6lM9zv2NEjgRBEAQhYAIVIosIpZLtsUqQXX7sguT2qCNOut1oUfy6x9IVHadHe3k3OfLNKokYCYIgCELqBDLt3iMj5CU/bo/25177dGVJJ2PkhG5GKBXpcXpu/T4au7I8Wvc5SVKM/p+FiJEgCIIgpEDQ6xC5yZBO5sdNhty2+clRJmKUjgjpSFBUaqh/uzUGZXtujwOIS5JVhAwkSpGIkCAIgiCkSMZC5JEdgmUbbPvtZf2263S/ecmVV8bKHheQ2D3m1W0FJAqINatDtuc652qXJDhsZ9t2IDl2IiKZlSYIgiAImmQsRMzMlqn01g9g6zbr8+j3TmNy7OX8ttszJobDPi85sdbteHouX27jhfz2sUfdXm3CpZzTMX0bRIYEQRAEQZugusyskgPbcyAuJ9GyVlmxdvlEP9QN2/d2kYoeZ5eh6KM1++PVZQb4C5FTHPbxO35jh3S2u5Xzky4nYRIZEgRBEIQUyPUsM79ZYTpjgVKdaQbbc10ZiuImHMr23CtDpDvY2k2C/LJOsS/JDAmCIAhC6uRiHSInMdEdC5SKTOl8weG5H25CpPOlKzV+EuSUlUp4LiIkCIIgCOlTqCtV64iTrvg4CVC6QmR/dOu20pUkne1OX4BIkCAIgiAERk7vZeZyE1c/kXETHvsMMTfxyUSGovhJkdM26z77GClf2XHZJoOlBUEQBCEL5P1u9w6SFH3uJklw2O703KlO+zan763YL47ToGU/SfISJqfvY2VFfgRBEAQhN+RdiLywyBLgLExO250e4VDGa7vbRXHa7pY9sm9z2i7SIwiCIAgFQEELkS42cYpt9jsshSb8LlLSfhEdQRAEQSgeBoQQCYIgCIIgZILhX0QQBEEQBGFgI0IkCIIgCMKgR4RIEARBEIRBjwiRIAiCIAiDnv8P5ERgF4m+TK4AAAAASUVORK5CYII=;clipPath=inset(0% 74% 0% 0%);" vertex="1" parent="ciRk2GcdctBLouNBX0Yz-10">
          <mxGeometry width="54.057272727272725" height="58.909090909090914" as="geometry" />
        </mxCell>
        <mxCell id="UEzPUAAOIrF-is8g5C7q-90" value="" style="edgeStyle=orthogonalEdgeStyle;rounded=0;orthogonalLoop=1;jettySize=auto;html=1;endArrow=open;endFill=0;strokeWidth=2;" parent="1" target="UEzPUAAOIrF-is8g5C7q-80" edge="1">
          <mxGeometry relative="1" as="geometry">
            <mxPoint x="448" y="349" as="sourcePoint" />
          </mxGeometry>
        </mxCell>
        <mxCell id="UEzPUAAOIrF-is8g5C7q-92" value="" style="edgeStyle=orthogonalEdgeStyle;rounded=0;orthogonalLoop=1;jettySize=auto;html=1;endArrow=open;endFill=0;strokeWidth=2;" parent="1" source="UEzPUAAOIrF-is8g5C7q-81" edge="1">
          <mxGeometry relative="1" as="geometry">
            <mxPoint x="723" y="349" as="targetPoint" />
          </mxGeometry>
        </mxCell>
        <mxCell id="UEzPUAAOIrF-is8g5C7q-101" value="" style="edgeStyle=orthogonalEdgeStyle;rounded=0;orthogonalLoop=1;jettySize=auto;html=1;endArrow=open;endFill=0;strokeWidth=2;" parent="1" target="UEzPUAAOIrF-is8g5C7q-83" edge="1">
          <mxGeometry relative="1" as="geometry">
            <mxPoint x="1018.5" y="349" as="sourcePoint" />
          </mxGeometry>
        </mxCell>
        <mxCell id="UEzPUAAOIrF-is8g5C7q-97" style="edgeStyle=orthogonalEdgeStyle;rounded=0;orthogonalLoop=1;jettySize=auto;html=1;endArrow=open;endFill=0;strokeWidth=2;startArrow=open;startFill=0;" parent="1" source="UEzPUAAOIrF-is8g5C7q-85" edge="1">
          <mxGeometry relative="1" as="geometry">
            <Array as="points">
              <mxPoint x="684" y="560" />
              <mxPoint x="859" y="560" />
            </Array>
            <mxPoint x="749" y="590" as="targetPoint" />
          </mxGeometry>
        </mxCell>
      </root>
    </mxGraphModel>
  </diagram>
</mxfile>
